<svg xmlns="http://www.w3.org/2000/svg" version="1.1" xmlns:xlink="http://www.w3.org/1999/xlink" xmlns:svgjs="http://svgjs.com/svgjs" width="1200" height="500" preserveAspectRatio="none" viewBox="0 0 1200 500"><g mask="url(&quot;#SvgjsMask1775&quot;)" fill="none"><rect width="1200" height="500" x="0" y="0" fill="url(#SvgjsLinearGradient1776)"></rect><path d="M134.99 61.34L199.95 98.84L199.95 173.84L134.99 211.34L70.04 173.84L70.04 98.84zM264.9 61.34L329.86 98.84L329.86 173.84L264.9 211.34L199.95 173.84L199.95 98.84zM199.95 173.84L264.9 211.34L264.9 286.34L199.95 323.84L134.99 286.34L134.99 211.34zM329.86 -51.16L394.81 -13.66L394.81 61.34L329.86 98.84L264.9 61.34L264.9 -13.66zM589.67 -51.16L654.62 -13.66L654.62 61.34L589.67 98.84L524.72 61.34L524.72 -13.66zM654.62 61.34L719.58 98.84L719.58 173.84L654.62 211.34L589.67 173.84L589.67 98.84zM849.48 -51.16L914.44 -13.66L914.44 61.34L849.48 98.84L784.53 61.34L784.53 -13.66zM1044.35 61.34L1109.3 98.84L1109.3 173.84L1044.35 211.34L979.39 173.84L979.39 98.84zM979.39 173.84L1044.35 211.34L1044.35 286.34L979.39 323.84L914.44 286.34L914.44 211.34zM1109.3 173.84L1174.25 211.34L1174.25 286.34L1109.3 323.84L1044.35 286.34L1044.35 211.34z" stroke="url(#SvgjsLinearGradient1777)" stroke-width="2"></path><path d="M127.49 61.34 a7.5 7.5 0 1 0 15 0 a7.5 7.5 0 1 0 -15 0zM192.45 98.84 a7.5 7.5 0 1 0 15 0 a7.5 7.5 0 1 0 -15 0zM192.45 173.84 a7.5 7.5 0 1 0 15 0 a7.5 7.5 0 1 0 -15 0zM127.49 211.34 a7.5 7.5 0 1 0 15 0 a7.5 7.5 0 1 0 -15 0zM62.54 173.84 a7.5 7.5 0 1 0 15 0 a7.5 7.5 0 1 0 -15 0zM62.54 98.84 a7.5 7.5 0 1 0 15 0 a7.5 7.5 0 1 0 -15 0zM257.4 61.34 a7.5 7.5 0 1 0 15 0 a7.5 7.5 0 1 0 -15 0zM322.36 98.84 a7.5 7.5 0 1 0 15 0 a7.5 7.5 0 1 0 -15 0zM322.36 173.84 a7.5 7.5 0 1 0 15 0 a7.5 7.5 0 1 0 -15 0zM257.4 211.34 a7.5 7.5 0 1 0 15 0 a7.5 7.5 0 1 0 -15 0zM257.4 286.34 a7.5 7.5 0 1 0 15 0 a7.5 7.5 0 1 0 -15 0zM192.45 323.84 a7.5 7.5 0 1 0 15 0 a7.5 7.5 0 1 0 -15 0zM127.49 286.34 a7.5 7.5 0 1 0 15 0 a7.5 7.5 0 1 0 -15 0zM322.36 -51.16 a7.5 7.5 0 1 0 15 0 a7.5 7.5 0 1 0 -15 0zM387.31 -13.66 a7.5 7.5 0 1 0 15 0 a7.5 7.5 0 1 0 -15 0zM387.31 61.34 a7.5 7.5 0 1 0 15 0 a7.5 7.5 0 1 0 -15 0zM257.4 -13.66 a7.5 7.5 0 1 0 15 0 a7.5 7.5 0 1 0 -15 0zM582.17 -51.16 a7.5 7.5 0 1 0 15 0 a7.5 7.5 0 1 0 -15 0zM647.12 -13.66 a7.5 7.5 0 1 0 15 0 a7.5 7.5 0 1 0 -15 0zM647.12 61.34 a7.5 7.5 0 1 0 15 0 a7.5 7.5 0 1 0 -15 0zM582.17 98.84 a7.5 7.5 0 1 0 15 0 a7.5 7.5 0 1 0 -15 0zM517.22 61.34 a7.5 7.5 0 1 0 15 0 a7.5 7.5 0 1 0 -15 0zM517.22 -13.66 a7.5 7.5 0 1 0 15 0 a7.5 7.5 0 1 0 -15 0zM712.08 98.84 a7.5 7.5 0 1 0 15 0 a7.5 7.5 0 1 0 -15 0zM712.08 173.84 a7.5 7.5 0 1 0 15 0 a7.5 7.5 0 1 0 -15 0zM647.12 211.34 a7.5 7.5 0 1 0 15 0 a7.5 7.5 0 1 0 -15 0zM582.17 173.84 a7.5 7.5 0 1 0 15 0 a7.5 7.5 0 1 0 -15 0zM841.98 -51.16 a7.5 7.5 0 1 0 15 0 a7.5 7.5 0 1 0 -15 0zM906.94 -13.66 a7.5 7.5 0 1 0 15 0 a7.5 7.5 0 1 0 -15 0zM906.94 61.34 a7.5 7.5 0 1 0 15 0 a7.5 7.5 0 1 0 -15 0zM841.98 98.84 a7.5 7.5 0 1 0 15 0 a7.5 7.5 0 1 0 -15 0zM777.03 61.34 a7.5 7.5 0 1 0 15 0 a7.5 7.5 0 1 0 -15 0zM777.03 -13.66 a7.5 7.5 0 1 0 15 0 a7.5 7.5 0 1 0 -15 0zM1036.85 61.34 a7.5 7.5 0 1 0 15 0 a7.5 7.5 0 1 0 -15 0zM1101.8 98.84 a7.5 7.5 0 1 0 15 0 a7.5 7.5 0 1 0 -15 0zM1101.8 173.84 a7.5 7.5 0 1 0 15 0 a7.5 7.5 0 1 0 -15 0zM1036.85 211.34 a7.5 7.5 0 1 0 15 0 a7.5 7.5 0 1 0 -15 0zM971.89 173.84 a7.5 7.5 0 1 0 15 0 a7.5 7.5 0 1 0 -15 0zM971.89 98.84 a7.5 7.5 0 1 0 15 0 a7.5 7.5 0 1 0 -15 0zM1036.85 286.34 a7.5 7.5 0 1 0 15 0 a7.5 7.5 0 1 0 -15 0zM971.89 323.84 a7.5 7.5 0 1 0 15 0 a7.5 7.5 0 1 0 -15 0zM906.94 286.34 a7.5 7.5 0 1 0 15 0 a7.5 7.5 0 1 0 -15 0zM906.94 211.34 a7.5 7.5 0 1 0 15 0 a7.5 7.5 0 1 0 -15 0zM1166.75 211.34 a7.5 7.5 0 1 0 15 0 a7.5 7.5 0 1 0 -15 0zM1166.75 286.34 a7.5 7.5 0 1 0 15 0 a7.5 7.5 0 1 0 -15 0zM1101.8 323.84 a7.5 7.5 0 1 0 15 0 a7.5 7.5 0 1 0 -15 0z" fill="url(#SvgjsLinearGradient1777)"></path><path d="M52.25 177.66L95.56 202.66L95.56 252.66L52.25 277.66L8.95 252.66L8.95 202.66zM8.95 252.66L52.25 277.66L52.25 327.66L8.95 352.66L-34.35 327.66L-34.35 277.66zM138.86 27.66L182.16 52.66L182.16 102.66L138.86 127.66L95.56 102.66L95.56 52.66zM138.86 327.66L182.16 352.66L182.16 402.66L138.86 427.66L95.56 402.66L95.56 352.66zM182.16 -47.34L225.46 -22.34L225.46 27.66L182.16 52.66L138.86 27.66L138.86 -22.34zM182.16 102.66L225.46 127.66L225.46 177.66L182.16 202.66L138.86 177.66L138.86 127.66zM225.46 177.66L268.76 202.66L268.76 252.66L225.46 277.66L182.16 252.66L182.16 202.66zM225.46 327.66L268.76 352.66L268.76 402.66L225.46 427.66L182.16 402.66L182.16 352.66zM182.16 402.66L225.46 427.66L225.46 477.66L182.16 502.66L138.86 477.66L138.86 427.66zM268.76 252.66L312.07 277.66L312.07 327.66L268.76 352.66L225.46 327.66L225.46 277.66zM312.07 327.66L355.37 352.66L355.37 402.66L312.07 427.66L268.76 402.66L268.76 352.66zM312.07 477.66L355.37 502.66L355.37 552.66L312.07 577.66L268.76 552.66L268.76 502.66zM398.67 177.66L441.98 202.66L441.98 252.66L398.67 277.66L355.37 252.66L355.37 202.66zM355.37 252.66L398.67 277.66L398.67 327.66L355.37 352.66L312.07 327.66L312.07 277.66zM485.28 327.66L528.58 352.66L528.58 402.66L485.28 427.66L441.98 402.66L441.98 352.66zM441.98 402.66L485.28 427.66L485.28 477.66L441.98 502.66L398.67 477.66L398.67 427.66zM571.88 27.66L615.19 52.66L615.19 102.66L571.88 127.66L528.58 102.66L528.58 52.66zM528.58 102.66L571.88 127.66L571.88 177.66L528.58 202.66L485.28 177.66L485.28 127.66zM528.58 402.66L571.88 427.66L571.88 477.66L528.58 502.66L485.28 477.66L485.28 427.66zM615.19 102.66L658.49 127.66L658.49 177.66L615.19 202.66L571.88 177.66L571.88 127.66zM615.19 252.66L658.49 277.66L658.49 327.66L615.19 352.66L571.88 327.66L571.88 277.66zM658.49 477.66L701.79 502.66L701.79 552.66L658.49 577.66L615.19 552.66L615.19 502.66zM701.79 -47.34L745.09 -22.34L745.09 27.66L701.79 52.66L658.49 27.66L658.49 -22.34zM745.09 27.66L788.4 52.66L788.4 102.66L745.09 127.66L701.79 102.66L701.79 52.66zM745.09 327.66L788.4 352.66L788.4 402.66L745.09 427.66L701.79 402.66L701.79 352.66zM701.79 402.66L745.09 427.66L745.09 477.66L701.79 502.66L658.49 477.66L658.49 427.66zM745.09 477.66L788.4 502.66L788.4 552.66L745.09 577.66L701.79 552.66L701.79 502.66zM788.4 -47.34L831.7 -22.34L831.7 27.66L788.4 52.66L745.09 27.66L745.09 -22.34zM831.7 27.66L875 52.66L875 102.66L831.7 127.66L788.4 102.66L788.4 52.66zM918.3 27.66L961.61 52.66L961.61 102.66L918.3 127.66L875 102.66L875 52.66zM1091.51 177.66L1134.82 202.66L1134.82 252.66L1091.51 277.66L1048.21 252.66L1048.21 202.66zM1091.51 327.66L1134.82 352.66L1134.82 402.66L1091.51 427.66L1048.21 402.66L1048.21 352.66zM1134.82 -47.34L1178.12 -22.34L1178.12 27.66L1134.82 52.66L1091.51 27.66L1091.51 -22.34zM1134.82 102.66L1178.12 127.66L1178.12 177.66L1134.82 202.66L1091.51 177.66L1091.51 127.66zM1178.12 177.66L1221.42 202.66L1221.42 252.66L1178.12 277.66L1134.82 252.66L1134.82 202.66zM1134.82 402.66L1178.12 427.66L1178.12 477.66L1134.82 502.66L1091.51 477.66L1091.51 427.66zM1178.12 477.66L1221.42 502.66L1221.42 552.66L1178.12 577.66L1134.82 552.66L1134.82 502.66z" stroke="url(#SvgjsLinearGradient1778)" stroke-width="2"></path></g><defs><mask id="SvgjsMask1775"><rect width="1200" height="500" fill="#ffffff"></rect></mask><linearGradient x1="14.58%" y1="-35%" x2="85.42%" y2="135%" gradientUnits="userSpaceOnUse" id="SvgjsLinearGradient1776"><stop stop-color="#0e2a47" offset="0"></stop><stop stop-color="rgba(42, 157, 143, 1)" offset="1"></stop></linearGradient><linearGradient x1="174.96" y1="-175" x2="1025.0400000000002" y2="675" gradientUnits="userSpaceOnUse" id="SvgjsLinearGradient1777"><stop stop-color="#0e2a47" offset="0"></stop><stop stop-color="rgba(79, 208, 193, 1)" offset="1"></stop></linearGradient><linearGradient x1="174.96" y1="-175" x2="1025.0400000000002" y2="675" gradientUnits="userSpaceOnUse" id="SvgjsLinearGradient1778"><stop stop-color="#0e2a47" offset="0"></stop><stop stop-color="rgba(46, 175, 153, 1)" offset="1"></stop></linearGradient></defs></svg>