<svg xmlns="http://www.w3.org/2000/svg" version="1.1" xmlns:xlink="http://www.w3.org/1999/xlink" xmlns:svgjs="http://svgjs.com/svgjs" width="1200" height="500" preserveAspectRatio="none" viewBox="0 0 1200 500"><g mask="url(&quot;#SvgjsMask1543&quot;)" fill="none"><rect width="1200" height="500" x="0" y="0" fill="url(#SvgjsLinearGradient1544)"></rect><path d="M127.01 69.57L191.97 107.07L191.97 182.07L127.01 219.57L62.06 182.07L62.06 107.07zM256.92 294.57L321.88 332.07L321.88 407.07L256.92 444.57L191.97 407.07L191.97 332.07zM321.88 -42.93L386.83 -5.43L386.83 69.57L321.88 107.07L256.92 69.57L256.92 -5.43zM451.78 182.07L516.74 219.57L516.74 294.57L451.78 332.07L386.83 294.57L386.83 219.57zM516.74 294.57L581.69 332.07L581.69 407.07L516.74 444.57L451.78 407.07L451.78 332.07zM776.55 294.57L841.51 332.07L841.51 407.07L776.55 444.57L711.6 407.07L711.6 332.07zM1166.27 69.57L1231.23 107.07L1231.23 182.07L1166.27 219.57L1101.32 182.07L1101.32 107.07zM1296.18 294.57L1361.13 332.07L1361.13 407.07L1296.18 444.57L1231.23 407.07L1231.23 332.07zM1231.23 407.07L1296.18 444.57L1296.18 519.57L1231.23 557.07L1166.27 519.57L1166.27 444.57z" stroke="url(#SvgjsLinearGradient1545)" stroke-width="2"></path><path d="M119.51 69.57 a7.5 7.5 0 1 0 15 0 a7.5 7.5 0 1 0 -15 0zM184.47 107.07 a7.5 7.5 0 1 0 15 0 a7.5 7.5 0 1 0 -15 0zM184.47 182.07 a7.5 7.5 0 1 0 15 0 a7.5 7.5 0 1 0 -15 0zM119.51 219.57 a7.5 7.5 0 1 0 15 0 a7.5 7.5 0 1 0 -15 0zM54.56 182.07 a7.5 7.5 0 1 0 15 0 a7.5 7.5 0 1 0 -15 0zM54.56 107.07 a7.5 7.5 0 1 0 15 0 a7.5 7.5 0 1 0 -15 0zM249.42 294.57 a7.5 7.5 0 1 0 15 0 a7.5 7.5 0 1 0 -15 0zM314.38 332.07 a7.5 7.5 0 1 0 15 0 a7.5 7.5 0 1 0 -15 0zM314.38 407.07 a7.5 7.5 0 1 0 15 0 a7.5 7.5 0 1 0 -15 0zM249.42 444.57 a7.5 7.5 0 1 0 15 0 a7.5 7.5 0 1 0 -15 0zM184.47 407.07 a7.5 7.5 0 1 0 15 0 a7.5 7.5 0 1 0 -15 0zM184.47 332.07 a7.5 7.5 0 1 0 15 0 a7.5 7.5 0 1 0 -15 0zM314.38 -42.93 a7.5 7.5 0 1 0 15 0 a7.5 7.5 0 1 0 -15 0zM379.33 -5.43 a7.5 7.5 0 1 0 15 0 a7.5 7.5 0 1 0 -15 0zM379.33 69.57 a7.5 7.5 0 1 0 15 0 a7.5 7.5 0 1 0 -15 0zM314.38 107.07 a7.5 7.5 0 1 0 15 0 a7.5 7.5 0 1 0 -15 0zM249.42 69.57 a7.5 7.5 0 1 0 15 0 a7.5 7.5 0 1 0 -15 0zM249.42 -5.43 a7.5 7.5 0 1 0 15 0 a7.5 7.5 0 1 0 -15 0zM444.28 182.07 a7.5 7.5 0 1 0 15 0 a7.5 7.5 0 1 0 -15 0zM509.24 219.57 a7.5 7.5 0 1 0 15 0 a7.5 7.5 0 1 0 -15 0zM509.24 294.57 a7.5 7.5 0 1 0 15 0 a7.5 7.5 0 1 0 -15 0zM444.28 332.07 a7.5 7.5 0 1 0 15 0 a7.5 7.5 0 1 0 -15 0zM379.33 294.57 a7.5 7.5 0 1 0 15 0 a7.5 7.5 0 1 0 -15 0zM379.33 219.57 a7.5 7.5 0 1 0 15 0 a7.5 7.5 0 1 0 -15 0zM574.19 332.07 a7.5 7.5 0 1 0 15 0 a7.5 7.5 0 1 0 -15 0zM574.19 407.07 a7.5 7.5 0 1 0 15 0 a7.5 7.5 0 1 0 -15 0zM509.24 444.57 a7.5 7.5 0 1 0 15 0 a7.5 7.5 0 1 0 -15 0zM444.28 407.07 a7.5 7.5 0 1 0 15 0 a7.5 7.5 0 1 0 -15 0zM769.05 294.57 a7.5 7.5 0 1 0 15 0 a7.5 7.5 0 1 0 -15 0zM834.01 332.07 a7.5 7.5 0 1 0 15 0 a7.5 7.5 0 1 0 -15 0zM834.01 407.07 a7.5 7.5 0 1 0 15 0 a7.5 7.5 0 1 0 -15 0zM769.05 444.57 a7.5 7.5 0 1 0 15 0 a7.5 7.5 0 1 0 -15 0zM704.1 407.07 a7.5 7.5 0 1 0 15 0 a7.5 7.5 0 1 0 -15 0zM704.1 332.07 a7.5 7.5 0 1 0 15 0 a7.5 7.5 0 1 0 -15 0zM1158.77 69.57 a7.5 7.5 0 1 0 15 0 a7.5 7.5 0 1 0 -15 0zM1223.73 107.07 a7.5 7.5 0 1 0 15 0 a7.5 7.5 0 1 0 -15 0zM1223.73 182.07 a7.5 7.5 0 1 0 15 0 a7.5 7.5 0 1 0 -15 0zM1158.77 219.57 a7.5 7.5 0 1 0 15 0 a7.5 7.5 0 1 0 -15 0zM1093.82 182.07 a7.5 7.5 0 1 0 15 0 a7.5 7.5 0 1 0 -15 0zM1093.82 107.07 a7.5 7.5 0 1 0 15 0 a7.5 7.5 0 1 0 -15 0zM1288.68 294.57 a7.5 7.5 0 1 0 15 0 a7.5 7.5 0 1 0 -15 0zM1353.63 332.07 a7.5 7.5 0 1 0 15 0 a7.5 7.5 0 1 0 -15 0zM1353.63 407.07 a7.5 7.5 0 1 0 15 0 a7.5 7.5 0 1 0 -15 0zM1288.68 444.57 a7.5 7.5 0 1 0 15 0 a7.5 7.5 0 1 0 -15 0zM1223.73 407.07 a7.5 7.5 0 1 0 15 0 a7.5 7.5 0 1 0 -15 0zM1223.73 332.07 a7.5 7.5 0 1 0 15 0 a7.5 7.5 0 1 0 -15 0zM1288.68 519.57 a7.5 7.5 0 1 0 15 0 a7.5 7.5 0 1 0 -15 0zM1223.73 557.07 a7.5 7.5 0 1 0 15 0 a7.5 7.5 0 1 0 -15 0zM1158.77 519.57 a7.5 7.5 0 1 0 15 0 a7.5 7.5 0 1 0 -15 0zM1158.77 444.57 a7.5 7.5 0 1 0 15 0 a7.5 7.5 0 1 0 -15 0z" fill="url(#SvgjsLinearGradient1545)"></path><path d="M2.38 271.72L45.68 296.72L45.68 346.72L2.38 371.72L-40.92 346.72L-40.92 296.72zM2.38 421.72L45.68 446.72L45.68 496.72L2.38 521.72L-40.92 496.72L-40.92 446.72zM45.68 496.72L88.98 521.72L88.98 571.72L45.68 596.72L2.38 571.72L2.38 521.72zM88.98 121.72L132.29 146.72L132.29 196.72L88.98 221.72L45.68 196.72L45.68 146.72zM132.29 196.72L175.59 221.72L175.59 271.72L132.29 296.72L88.98 271.72L88.98 221.72zM88.98 421.72L132.29 446.72L132.29 496.72L88.98 521.72L45.68 496.72L45.68 446.72zM175.59 121.72L218.89 146.72L218.89 196.72L175.59 221.72L132.29 196.72L132.29 146.72zM218.89 196.72L262.19 221.72L262.19 271.72L218.89 296.72L175.59 271.72L175.59 221.72zM175.59 271.72L218.89 296.72L218.89 346.72L175.59 371.72L132.29 346.72L132.29 296.72zM218.89 346.72L262.19 371.72L262.19 421.72L218.89 446.72L175.59 421.72L175.59 371.72zM175.59 421.72L218.89 446.72L218.89 496.72L175.59 521.72L132.29 496.72L132.29 446.72zM262.19 -28.28L305.5 -3.28L305.5 46.72L262.19 71.72L218.89 46.72L218.89 -3.28zM262.19 121.72L305.5 146.72L305.5 196.72L262.19 221.72L218.89 196.72L218.89 146.72zM305.5 346.72L348.8 371.72L348.8 421.72L305.5 446.72L262.19 421.72L262.19 371.72zM392.1 196.72L435.41 221.72L435.41 271.72L392.1 296.72L348.8 271.72L348.8 221.72zM348.8 271.72L392.1 296.72L392.1 346.72L348.8 371.72L305.5 346.72L305.5 296.72zM392.1 496.72L435.41 521.72L435.41 571.72L392.1 596.72L348.8 571.72L348.8 521.72zM478.71 196.72L522.01 221.72L522.01 271.72L478.71 296.72L435.41 271.72L435.41 221.72zM435.41 271.72L478.71 296.72L478.71 346.72L435.41 371.72L392.1 346.72L392.1 296.72zM522.01 -28.28L565.31 -3.28L565.31 46.72L522.01 71.72L478.71 46.72L478.71 -3.28zM565.31 196.72L608.62 221.72L608.62 271.72L565.31 296.72L522.01 271.72L522.01 221.72zM522.01 271.72L565.31 296.72L565.31 346.72L522.01 371.72L478.71 346.72L478.71 296.72zM565.31 346.72L608.62 371.72L608.62 421.72L565.31 446.72L522.01 421.72L522.01 371.72zM565.31 496.72L608.62 521.72L608.62 571.72L565.31 596.72L522.01 571.72L522.01 521.72zM608.62 121.72L651.92 146.72L651.92 196.72L608.62 221.72L565.31 196.72L565.31 146.72zM608.62 271.72L651.92 296.72L651.92 346.72L608.62 371.72L565.31 346.72L565.31 296.72zM651.92 346.72L695.22 371.72L695.22 421.72L651.92 446.72L608.62 421.72L608.62 371.72zM608.62 421.72L651.92 446.72L651.92 496.72L608.62 521.72L565.31 496.72L565.31 446.72zM651.92 496.72L695.22 521.72L695.22 571.72L651.92 596.72L608.62 571.72L608.62 521.72zM695.22 -28.28L738.52 -3.28L738.52 46.72L695.22 71.72L651.92 46.72L651.92 -3.28zM738.52 46.72L781.83 71.72L781.83 121.72L738.52 146.72L695.22 121.72L695.22 71.72zM695.22 121.72L738.52 146.72L738.52 196.72L695.22 221.72L651.92 196.72L651.92 146.72zM738.52 196.72L781.83 221.72L781.83 271.72L738.52 296.72L695.22 271.72L695.22 221.72zM738.52 496.72L781.83 521.72L781.83 571.72L738.52 596.72L695.22 571.72L695.22 521.72zM825.13 46.72L868.43 71.72L868.43 121.72L825.13 146.72L781.83 121.72L781.83 71.72zM781.83 121.72L825.13 146.72L825.13 196.72L781.83 221.72L738.52 196.72L738.52 146.72zM825.13 346.72L868.43 371.72L868.43 421.72L825.13 446.72L781.83 421.72L781.83 371.72zM868.43 -28.28L911.73 -3.28L911.73 46.72L868.43 71.72L825.13 46.72L825.13 -3.28zM911.73 196.72L955.04 221.72L955.04 271.72L911.73 296.72L868.43 271.72L868.43 221.72zM911.73 496.72L955.04 521.72L955.04 571.72L911.73 596.72L868.43 571.72L868.43 521.72zM955.04 -28.28L998.34 -3.28L998.34 46.72L955.04 71.72L911.73 46.72L911.73 -3.28zM955.04 121.72L998.34 146.72L998.34 196.72L955.04 221.72L911.73 196.72L911.73 146.72zM998.34 196.72L1041.64 221.72L1041.64 271.72L998.34 296.72L955.04 271.72L955.04 221.72zM998.34 496.72L1041.64 521.72L1041.64 571.72L998.34 596.72L955.04 571.72L955.04 521.72zM1084.94 346.72L1128.25 371.72L1128.25 421.72L1084.94 446.72L1041.64 421.72L1041.64 371.72zM1041.64 421.72L1084.94 446.72L1084.94 496.72L1041.64 521.72L998.34 496.72L998.34 446.72zM1084.94 496.72L1128.25 521.72L1128.25 571.72L1084.94 596.72L1041.64 571.72L1041.64 521.72zM1128.25 271.72L1171.55 296.72L1171.55 346.72L1128.25 371.72L1084.94 346.72L1084.94 296.72zM1171.55 346.72L1214.85 371.72L1214.85 421.72L1171.55 446.72L1128.25 421.72L1128.25 371.72z" stroke="url(#SvgjsLinearGradient1546)" stroke-width="2"></path></g><defs><mask id="SvgjsMask1543"><rect width="1200" height="500" fill="#ffffff"></rect></mask><linearGradient x1="14.58%" y1="-35%" x2="85.42%" y2="135%" gradientUnits="userSpaceOnUse" id="SvgjsLinearGradient1544"><stop stop-color="#0e2a47" offset="0"></stop><stop stop-color="rgba(42, 157, 143, 1)" offset="1"></stop></linearGradient><linearGradient x1="174.96" y1="-175" x2="1025.0400000000002" y2="675" gradientUnits="userSpaceOnUse" id="SvgjsLinearGradient1545"><stop stop-color="#0e2a47" offset="0"></stop><stop stop-color="rgba(79, 208, 193, 1)" offset="1"></stop></linearGradient><linearGradient x1="174.96" y1="-175" x2="1025.0400000000002" y2="675" gradientUnits="userSpaceOnUse" id="SvgjsLinearGradient1546"><stop stop-color="#0e2a47" offset="0"></stop><stop stop-color="rgba(46, 175, 153, 1)" offset="1"></stop></linearGradient></defs></svg>