<svg xmlns="http://www.w3.org/2000/svg" version="1.1" xmlns:xlink="http://www.w3.org/1999/xlink" xmlns:svgjs="http://svgjs.com/svgjs" width="1200" height="500" preserveAspectRatio="none" viewBox="0 0 1200 500"><g mask="url(&quot;#SvgjsMask1105&quot;)" fill="none"><rect width="1200" height="500" x="0" y="0" fill="rgba(233, 196, 106, 1)"></rect><path d="M0,399.679C72.8,410.115,122.708,326.962,184.988,287.847C248.084,248.22,346.406,239.439,368.458,168.269C391.096,95.207,299.719,34.158,286.96,-41.259C274.707,-113.681,332.165,-192.714,296.52,-256.936C260.519,-321.798,179.109,-346.859,107.208,-365.117C37.066,-382.928,-40.445,-390.88,-105.411,-358.998C-167.27,-328.64,-196.646,-259.669,-230.247,-199.51C-258.017,-149.79,-267.586,-95.487,-283.181,-40.715C-301.539,23.758,-358.082,89.835,-329.959,150.687C-301.812,211.59,-207.333,198.868,-153.777,239.282C-93.432,284.819,-74.834,388.951,0,399.679" fill="#e0ad2f"></path><path d="M1200 789.009C1279.26 790.615 1350.159 876.379 1424.901 849.953 1498.298 824.002 1539.321 738.783 1556.69 662.895 1572.805 592.487 1525.224 526.211 1515.377 454.656 1505.446 382.495 1534.771 304.47 1498.658 241.211 1460.237 173.911 1393.355 107.969 1315.908 105.25299999999999 1237.346 102.49799999999999 1191.004 193.962 1120.115 227.93599999999998 1064.787 254.452 987.958 235.082 947.95 281.597 907.946 328.108 935.624 400.343 920.658 459.837 903.251 529.032 842.0260000000001 587.919 853.162 658.396 864.9929999999999 733.269 909.941 814.2429999999999 980.88 840.957 1052.58 867.9580000000001 1123.4 787.457 1200 789.009" fill="#f2dba5"></path></g><defs><mask id="SvgjsMask1105"><rect width="1200" height="500" fill="#ffffff"></rect></mask></defs></svg>