<svg xmlns="http://www.w3.org/2000/svg" version="1.1" xmlns:xlink="http://www.w3.org/1999/xlink" xmlns:svgjs="http://svgjs.com/svgjs" width="1200" height="550" preserveAspectRatio="none" viewBox="0 0 1200 550"><g mask="url(&quot;#SvgjsMask2936&quot;)" fill="none"><rect width="1200" height="550" x="0" y="0" fill="url(#SvgjsLinearGradient2937)"></rect><path d="M1200 0L903.64 0L1200 259.53z" fill="rgba(255, 255, 255, .1)"></path><path d="M903.64 0L1200 259.53L1200 346.52L882.26 0z" fill="rgba(255, 255, 255, .075)"></path><path d="M882.26 0L1200 346.52L1200 372.43L724.51 0z" fill="rgba(255, 255, 255, .05)"></path><path d="M724.51 0L1200 372.43L1200 463.05L548.18 0z" fill="rgba(255, 255, 255, .025)"></path><path d="M0 550L92.02 550L0 289.31z" fill="rgba(0, 0, 0, .1)"></path><path d="M0 289.31L92.02 550L400.7 550L0 138.93z" fill="rgba(0, 0, 0, .075)"></path><path d="M0 138.93L400.7 550L844.37 550L0 109.67z" fill="rgba(0, 0, 0, .05)"></path><path d="M0 109.67000000000002L844.37 550L1027.16 550L0 84.75000000000001z" fill="rgba(0, 0, 0, .025)"></path></g><defs><mask id="SvgjsMask2936"><rect width="1200" height="550" fill="#ffffff"></rect></mask><linearGradient x1="13.54%" y1="-29.55%" x2="86.46%" y2="129.55%" gradientUnits="userSpaceOnUse" id="SvgjsLinearGradient2937"><stop stop-color="#0e2a47" offset="0"></stop><stop stop-color="rgba(42, 157, 136, 1)" offset="0.68"></stop></linearGradient></defs></svg>